HIERARCHY
ROOT reference
{
  OFFSET 0 0 0
  CHANNELS 6 Xposition Yposition Zposition Zrotation Xrotation Yrotation
  JOINT Hips
  {
    OFFSET 5.38178 90.6761 1.81191
    CHANNELS 3 Zrotation Xrotation Yrotation
    JOINT RightUpLeg
    {
      OFFSET -9.25803 -1.54697 -0.00637561
      CHANNELS 3 Zrotation Xrotation Yrotation
      JOINT RightLeg
      {
        OFFSET 0.0268913 -41.8813 0.0496324
        CHANNELS 3 Zrotation Xrotation Yrotation
        JOINT RightFoot
        {
          OFFSET -0.0075405 -41.0447 -1.56222
          CHANNELS 3 Zrotation Xrotation Yrotation
          End Site
          {
            OFFSET 0 -7.69 17.5
          }
        }
      }
    }
    JOINT LeftUpLeg
    {
      OFFSET 9.25661 -1.65174 -0.0423925
      CHANNELS 3 Zrotation Xrotation Yrotation
      JOINT LeftLeg
      {
        OFFSET 0.0628197 -41.8797 -0.0329119
        CHANNELS 3 Zrotation Xrotation Yrotation
        JOINT LeftFoot
        {
          OFFSET 0.273935 -42.9132 0.732662
          CHANNELS 3 Zrotation Xrotation Yrotation
          End Site
          {
            OFFSET 0 -7.69 17.5
          }
        }
      }
    }
    JOINT Spine
    {
      OFFSET 0.000727368 14.3064 0.0249211
      CHANNELS 3 Zrotation Xrotation Yrotation
      JOINT Spine1
      {
        OFFSET 0.00017259 9.71309 0.0173608
        CHANNELS 3 Zrotation Xrotation Yrotation
        JOINT Spine2
        {
          OFFSET 0.0170683 10.1169 0.0221706
          CHANNELS 3 Zrotation Xrotation Yrotation
          JOINT Spine3
          {
            OFFSET 0.0141731 9.72121 0.0200587
            CHANNELS 3 Zrotation Xrotation Yrotation
            JOINT Neck
            {
              OFFSET -0.00891923 10.3827 0.0141478
              CHANNELS 3 Zrotation Xrotation Yrotation
              JOINT Head
              {
                OFFSET 0.00211689 9.46518 0.0169776
                CHANNELS 3 Zrotation Xrotation Yrotation
                End Site
                {
                  OFFSET 0 15.95 0
                }
              }
            }
            JOINT RightShoulder
            {
              OFFSET -3.1829 6.92202 0.0312592
              CHANNELS 3 Zrotation Xrotation Yrotation
              JOINT RightArm
              {
                OFFSET -12.7447 0.0137376 0.0283513
                CHANNELS 3 Zrotation Xrotation Yrotation
                JOINT RightForeArm
                {
                  OFFSET -26.5106 0.00162974 0.0584383
                  CHANNELS 3 Zrotation Xrotation Yrotation
                  JOINT RightHand
                  {
                    OFFSET -25.9985 -0.0458555 0.00254856
                    CHANNELS 3 Zrotation Xrotation Yrotation
                    JOINT RightHandThumb1
                    {
                      OFFSET -2.48905 0.190105 3.12053
                      CHANNELS 3 Zrotation Xrotation Yrotation
                      JOINT RightHandThumb2
                      {
                        OFFSET -3.68274 0 0
                        CHANNELS 3 Zrotation Xrotation Yrotation
                        JOINT RightHandThumb3
                        {
                          OFFSET -2.55832 0 0
                          CHANNELS 3 Zrotation Xrotation Yrotation
                          End Site
                          {
                            OFFSET -2.194 0 0
                          }
                        }
                      }
                    }
                    JOINT RightInHandIndex
                    {
                      OFFSET -3.22368 0.508421 1.97842
                      CHANNELS 3 Zrotation Xrotation Yrotation
                      JOINT RightHandIndex1
                      {
                        OFFSET -5.21684 -0.091368 0.999158
                        CHANNELS 3 Zrotation Xrotation Yrotation
                        JOINT RightHandIndex2
                        {
                          OFFSET -3.61937 0 0
                          CHANNELS 3 Zrotation Xrotation Yrotation
                          JOINT RightHandIndex3
                          {
                            OFFSET -2.0521 0 0
                            CHANNELS 3 Zrotation Xrotation Yrotation
                            End Site
                            {
                              OFFSET -1.805 0 0
                            }
                          }
                        }
                      }
                    }
                    JOINT RightInHandMiddle
                    {
                      OFFSET -3.38211 0.517263 0.756737
                      CHANNELS 3 Zrotation Xrotation Yrotation
                      JOINT RightHandMiddle1
                      {
                        OFFSET -5.17411 -0.084 0.313895
                        CHANNELS 3 Zrotation Xrotation Yrotation
                        JOINT RightHandMiddle2
                        {
                          OFFSET -3.94947 0 0
                          CHANNELS 3 Zrotation Xrotation Yrotation
                          JOINT RightHandMiddle3
                          {
                            OFFSET -2.47579 0 0
                            CHANNELS 3 Zrotation Xrotation Yrotation
                            End Site
                            {
                              OFFSET -1.975 0 0
                            }
                          }
                        }
                      }
                    }
                    JOINT RightInHandRing
                    {
                      OFFSET -3.36516 0.537895 -0.128947
                      CHANNELS 3 Zrotation Xrotation Yrotation
                      JOINT RightHandRing1
                      {
                        OFFSET -4.63474 -0.022105 -0.478947
                        CHANNELS 3 Zrotation Xrotation Yrotation
                        JOINT RightHandRing2
                        {
                          OFFSET -3.44238 0 0
                          CHANNELS 3 Zrotation Xrotation Yrotation
                          JOINT RightHandRing3
                          {
                            OFFSET -2.3881 0 0
                            CHANNELS 3 Zrotation Xrotation Yrotation
                            End Site
                            {
                              OFFSET -1.857 0 0
                            }
                          }
                        }
                      }
                    }
                    JOINT RightInHandPinky
                    {
                      OFFSET -3.16105 0.469368 -1.20179
                      CHANNELS 3 Zrotation Xrotation Yrotation
                      JOINT RightHandPinky1
                      {
                        OFFSET -4.14105 -0.022105 -1.09053
                        CHANNELS 3 Zrotation Xrotation Yrotation
                        JOINT RightHandPinky2
                        {
                          OFFSET -2.75653 0 0
                          CHANNELS 3 Zrotation Xrotation Yrotation
                          JOINT RightHandPinky3
                          {
                            OFFSET -1.74189 0 0
                            CHANNELS 3 Zrotation Xrotation Yrotation
                            End Site
                            {
                              OFFSET -1.645 0 0
                            }
                          }
                        }
                      }
                    }
                  }
                }
              }
            }
            JOINT LeftShoulder
            {
              OFFSET 3.2093 6.90502 -0.00894666
              CHANNELS 3 Zrotation Xrotation Yrotation
              JOINT LeftArm
              {
                OFFSET 12.8653 -0.0335514 -0.0467315
                CHANNELS 3 Zrotation Xrotation Yrotation
                JOINT LeftForeArm
                {
                  OFFSET 26.5072 -0.0839873 -0.0553917
                  CHANNELS 3 Zrotation Xrotation Yrotation
                  JOINT LeftHand
                  {
                    OFFSET 26.0127 -0.0742211 -0.0237236
                    CHANNELS 3 Zrotation Xrotation Yrotation
                    JOINT LeftHandThumb1
                    {
                      OFFSET 2.48905 0.190105 3.12053
                      CHANNELS 3 Zrotation Xrotation Yrotation
                      JOINT LeftHandThumb2
                      {
                        OFFSET 3.68274 0 0
                        CHANNELS 3 Zrotation Xrotation Yrotation
                        JOINT LeftHandThumb3
                        {
                          OFFSET 2.55832 0 0
                          CHANNELS 3 Zrotation Xrotation Yrotation
                          End Site
                          {
                            OFFSET 2.194 0 0
                          }
                        }
                      }
                    }
                    JOINT LeftInHandIndex
                    {
                      OFFSET 3.22368 0.508421 1.97842
                      CHANNELS 3 Zrotation Xrotation Yrotation
                      JOINT LeftHandIndex1
                      {
                        OFFSET 5.21684 -0.091368 0.999158
                        CHANNELS 3 Zrotation Xrotation Yrotation
                        JOINT LeftHandIndex2
                        {
                          OFFSET 3.61937 0 0
                          CHANNELS 3 Zrotation Xrotation Yrotation
                          JOINT LeftHandIndex3
                          {
                            OFFSET 2.0521 0 0
                            CHANNELS 3 Zrotation Xrotation Yrotation
                            End Site
                            {
                              OFFSET 1.805 0 0
                            }
                          }
                        }
                      }
                    }
                    JOINT LeftInHandMiddle
                    {
                      OFFSET 3.38211 0.517263 0.756737
                      CHANNELS 3 Zrotation Xrotation Yrotation
                      JOINT LeftHandMiddle1
                      {
                        OFFSET 5.17411 -0.084 0.313895
                        CHANNELS 3 Zrotation Xrotation Yrotation
                        JOINT LeftHandMiddle2
                        {
                          OFFSET 3.94947 0 0
                          CHANNELS 3 Zrotation Xrotation Yrotation
                          JOINT LeftHandMiddle3
                          {
                            OFFSET 2.47579 0 0
                            CHANNELS 3 Zrotation Xrotation Yrotation
                            End Site
                            {
                              OFFSET 1.975 0 0
                            }
                          }
                        }
                      }
                    }
                    JOINT LeftInHandRing
                    {
                      OFFSET 3.36516 0.537895 -0.128947
                      CHANNELS 3 Zrotation Xrotation Yrotation
                      JOINT LeftHandRing1
                      {
                        OFFSET 4.63474 -0.022105 -0.478947
                        CHANNELS 3 Zrotation Xrotation Yrotation
                        JOINT LeftHandRing2
                        {
                          OFFSET 3.44238 0 0
                          CHANNELS 3 Zrotation Xrotation Yrotation
                          JOINT LeftHandRing3
                          {
                            OFFSET 2.3881 0 0
                            CHANNELS 3 Zrotation Xrotation Yrotation
                            End Site
                            {
                              OFFSET 1.857 0 0
                            }
                          }
                        }
                      }
                    }
                    JOINT LeftInHandPinky
                    {
                      OFFSET 3.16105 0.469368 -1.20179
                      CHANNELS 3 Zrotation Xrotation Yrotation
                      JOINT LeftHandPinky1
                      {
                        OFFSET 4.14105 -0.022105 -1.09053
                        CHANNELS 3 Zrotation Xrotation Yrotation
                        JOINT LeftHandPinky2
                        {
                          OFFSET 2.75653 0 0
                          CHANNELS 3 Zrotation Xrotation Yrotation
                          JOINT LeftHandPinky3
                          {
                            OFFSET 1.74189 0 0
                            CHANNELS 3 Zrotation Xrotation Yrotation
                            End Site
                            {
                              OFFSET 1.645 0 0
                            }
                          }
                        }
                      }
                    }
                  }
                }
              }
            }
          }
        }
      }
    }
  }
}
MOTION
Frames:	4
Frame Time:	0.00833333
0 0 0 0 0 -0 27.0828 -21.3817 -113.44 -21.566 -51.8293 -13.0024 -6.03945 16.9968 24.8705 12.0735 -2.35303 47.2901 13.5152 -35.9933 30.677 -0.482349 2.51193 -17.3212 -15.5387 1.34327 -4.20074 -0.717553 21.4643 11.3342 0.192607 4.48826 3.01547 0.310208 6.58037 5.0186 -0.448825 -0.408406 -0.868459 -0.449224 -0.42497 -0.871136 -9.57697 -9.38964 -15.6428 -0.805502 -4.75822 24.3995 37.9985 10.9381 59.7064 -38.8867 -72.7247 -36.9902 7.24428 2.35291 -6.95258 28.184 10.7294 19.1592 -5.89842e-15 3.18055e-15 -10 -5.89842e-15 3.18055e-15 -10 -3.18055e-15 3.18055e-15 -1.59028e-15 19.9818 0.871897 2.3964 24 3.18055e-15 -0 20 3.97569e-16 -6.36111e-15 -3.18055e-15 3.18055e-15 -1.59028e-15 20 0 -6.36111e-15 24 6.36111e-15 1.27222e-14 20 4.82053e-15 6.36111e-15 -3.18055e-15 3.18055e-15 -1.59028e-15 19.9748 -1.02565 -2.81938 24 -1.59028e-15 -6.36111e-15 20 -4.87022e-15 -3.18055e-15 -3.18055e-15 3.18055e-15 -1.59028e-15 19.7815 -3.00948 -8.30515 24 7.95139e-16 1.27222e-14 20 -5.96354e-16 -0 -28.7355 -8.56988 -10.0591 -7.2518 48.5915 -95.3825 3.22736 -53.2631 -2.87223 -2.96952 -66.3207 -12.6508 -28.184 10.7294 -19.1592 3.22962e-15 0 10 -1.12164e-15 6.36111e-15 10 1.59028e-15 -6.36111e-15 -0 -19.9818 0.871897 -2.3964 -24 0 -1.59028e-14 -20 -4.77083e-15 -0 1.59028e-15 -6.36111e-15 -0 -20 3.18055e-15 -1.11319e-14 -24 0 -9.54166e-15 -20 1.59028e-15 -6.36111e-15 1.59028e-15 -6.36111e-15 -0 -19.9748 -1.02565 2.81938 -24 -3.18055e-15 -9.54166e-15 -20 3.97569e-15 9.54166e-15 1.59028e-15 -6.36111e-15 -0 -19.7815 -3.00948 8.30515 -24 -9.54166e-15 -9.54166e-15 -20 -3.18055e-15 3.18055e-15 
0 0 0 0 0 -0 27.0227 -21.3955 -113.708 -21.1641 -51.9135 -12.4458 -6.07574 16.9994 24.8484 12.032 -2.35011 47.2331 13.7539 -35.8136 30.8904 -0.522906 2.53502 -17.212 -15.5916 1.25264 -4.18635 -0.799341 21.4755 11.4523 0.17669 4.48288 3.03997 0.285641 6.56739 5.05596 -0.449167 -0.405303 -0.86835 -0.449588 -0.421757 -0.871046 -9.57659 -9.32691 -15.6169 -0.90969 -4.77445 24.2616 38.0904 11.0677 59.8472 -40.0711 -73.2913 -38.0203 7.2183 2.4231 -6.956 28.184 10.7294 19.1592 -3.22962e-15 0 -10 5.89842e-15 -3.18055e-15 -10 1.76556e-31 -6.36111e-15 1.59028e-15 19.9818 0.871897 2.3964 24 4.77083e-15 3.18055e-15 20 -6.4605e-16 -3.18055e-15 1.76556e-31 -6.36111e-15 1.59028e-15 20 -3.18055e-15 3.18055e-15 24 0 -0 20 -3.42904e-15 -0 1.76556e-31 -6.36111e-15 1.59028e-15 19.9748 -1.02565 -2.81938 24 -9.54166e-15 3.18055e-15 20 -1.39149e-15 -3.18055e-15 1.76556e-31 -6.36111e-15 1.59028e-15 19.7815 -3.00948 -8.30515 24 -4.77083e-15 -6.36111e-15 20 -7.95139e-16 -3.18055e-15 -28.7237 -8.57792 -10.0735 -7.39988 48.6224 -95.2296 3.14385 -53.0364 -2.98185 -2.97299 -66.3007 -12.7479 -28.184 10.7294 -19.1592 1.08105e-14 -6.36111e-15 10 -2.10798e-15 -6.36111e-15 10 7.95139e-16 0 -1.59028e-15 -19.9818 0.871897 -2.3964 -24 -3.18055e-15 3.18055e-15 -20 -1.59028e-15 3.18055e-15 7.95139e-16 0 -1.59028e-15 -20 0 4.77083e-15 -24 -3.18055e-15 -0 -20 3.18055e-15 -3.18055e-15 7.95139e-16 0 -1.59028e-15 -19.9748 -1.02565 2.81938 -24 -3.18055e-15 3.18055e-15 -20 7.95139e-16 3.18055e-15 7.95139e-16 0 -1.59028e-15 -19.7815 -3.00948 8.30515 -24 1.11319e-14 3.18055e-15 -20 -1.59028e-15 -3.18055e-15 
0 0 0 0 0 -0 26.9451 -21.408 -114.01 -20.7231 -51.986 -11.9352 -6.12062 16.9655 24.9631 11.9784 -2.32806 47.133 14.0155 -35.5931 31.0979 -0.565466 2.56429 -17.0716 -15.6405 1.11638 -4.1628 -0.889355 21.4907 11.5666 0.158738 4.47892 3.06276 0.257814 6.55614 5.09043 -0.449502 -0.401974 -0.868118 -0.449945 -0.418304 -0.870831 -9.5683 -9.25297 -15.5641 -1.00563 -4.78077 24.1345 38.2164 11.1617 60.0019 -41.347 -73.8164 -39.1454 7.18041 2.51337 -6.94251 28.184 10.7294 19.1592 -3.79044e-15 -3.18055e-15 -10 -1.54717e-15 9.54166e-15 -10 -3.53113e-31 6.36111e-15 3.18055e-15 19.9818 0.871897 2.3964 24 -4.77083e-15 6.36111e-15 20 -3.32964e-15 -3.18055e-15 -3.53113e-31 6.36111e-15 3.18055e-15 20 0 -0 24 0 -3.18055e-15 20 -1.78906e-15 -1.27222e-14 -3.53113e-31 6.36111e-15 3.18055e-15 19.9748 -1.02565 -2.81938 24 0 -6.36111e-15 20 9.93923e-16 -1.27222e-14 -3.53113e-31 6.36111e-15 3.18055e-15 19.7815 -3.00948 -8.30515 24 2.38542e-15 -3.18055e-15 20 -3.57812e-15 -6.36111e-15 -28.7122 -8.59702 -10.0906 -7.52163 48.6593 -95.1063 3.09015 -52.7115 -3.06747 -2.93607 -66.2748 -12.8374 -28.184 10.7294 -19.1592 3.79044e-15 -3.18055e-15 10 -4.77679e-15 -9.54166e-15 10 7.95139e-16 -9.54166e-15 -0 -19.9818 0.871897 -2.3964 -24 -6.36111e-15 6.36111e-15 -20 1.59028e-15 -0 7.95139e-16 -9.54166e-15 -0 -20 0 -0 -24 -6.36111e-15 -1.27222e-14 -20 3.18055e-15 -3.18055e-15 7.95139e-16 -9.54166e-15 -0 -19.9748 -1.02565 2.81938 -24 6.36111e-15 9.54166e-15 -20 -7.95139e-16 -9.54166e-15 7.95139e-16 -9.54166e-15 -0 -19.7815 -3.00948 8.30515 -24 -3.18055e-15 -6.36111e-15 -20 2.38542e-15 -6.36111e-15 
0 0 0 0 0 -0 26.8505 -21.4161 -114.352 -20.24 -52.0506 -11.4725 -6.10535 16.8054 25.2016 11.9015 -2.17416 46.9627 14.3053 -35.3366 31.3034 -0.601651 2.59795 -16.8712 -15.69 0.948954 -4.16023 -0.989095 21.5107 11.6798 0.1385 4.47573 3.08442 0.22633 6.54639 5.12295 -0.449814 -0.398464 -0.865364 -0.450279 -0.414652 -0.868064 -9.55087 -9.16559 -15.4786 -1.08182 -4.77421 24.0301 38.3997 11.1963 60.1509 -42.5988 -74.2571 -40.2428 7.10031 2.62315 -6.89439 28.184 10.7294 19.1592 6.45924e-15 0 -10 -9.68886e-15 0 -10 -6.36111e-15 9.54166e-15 -1.59028e-15 19.9818 0.871897 2.3964 24 1.59028e-15 1.27222e-14 20 -8.94531e-16 -3.18055e-15 -6.36111e-15 9.54166e-15 -1.59028e-15 20 0 3.18055e-15 24 -3.18055e-15 1.59028e-14 20 -1.3418e-15 -9.54166e-15 -6.36111e-15 9.54166e-15 -1.59028e-15 19.9748 -1.02565 -2.81938 24 9.54166e-15 3.18055e-15 20 -6.55989e-15 -0 -6.36111e-15 9.54166e-15 -1.59028e-15 19.7815 -3.00948 -8.30515 24 7.95139e-15 1.27222e-14 20 -5.1684e-15 -0 -28.701 -8.63172 -10.1138 -7.74073 48.7006 -94.8581 3.0959 -52.5656 -3.09011 -2.97115 -65.9159 -12.9582 -28.184 10.7294 -19.1592 -8.00641e-15 -9.54166e-15 10 -2.6688e-15 -3.18055e-15 10 -1.59028e-15 6.36111e-15 7.95139e-16 -19.9818 0.871897 -2.3964 -24 -1.27222e-14 -9.54166e-15 -20 0 -0 -1.59028e-15 6.36111e-15 7.95139e-16 -20 -6.36111e-15 6.36111e-15 -24 3.18055e-15 -0 -20 0 6.36111e-15 -1.59028e-15 6.36111e-15 7.95139e-16 -19.9748 -1.02565 2.81938 -24 3.18055e-15 -3.18055e-15 -20 3.18055e-15 -1.27222e-14 -1.59028e-15 6.36111e-15 7.95139e-16 -19.7815 -3.00948 8.30515 -24 -1.59028e-15 -6.36111e-15 -20 6.36111e-15 -9.54166e-15 
